<!DOCTYPE svg PUBLIC "-//W3C//DTD SVG 1.1//EN" "http://www.w3.org/Graphics/SVG/1.1/DTD/svg11.dtd">

<!-- Uploaded to: SVG Repo, www.svgrepo.com, Transformed by: SVG Repo Mixer Tools -->
<svg fill="#a19272" width="800px" height="800px" viewBox="0 0 32 32" id="icon" xmlns="http://www.w3.org/2000/svg" stroke="#a19272" stroke-width="1.6">

<g id="SVGRepo_bgCarrier" stroke-width="0"/>
<g id="SVGRepo_tracerCarrier" stroke-linecap="round" stroke-linejoin="round"/>
<g id="SVGRepo_iconCarrier"> <defs> <style> .cls-1 { fill: none; } </style> </defs> 
<g> 
  <path d="M26,26H6V6H16V4H6A2.002,2.002,0,0,0,4,6V26a2.002,2.002,0,0,0,2,2H26a2.002,2.002,0,0,0,2-2V16H26Z"/> 
</g> 
<polygon points="26 6 26 2 24 2 24 6 20 6 20 8 24 8 24 12 26 12 26 8 30 8 30 6 26 6"/> 
</g>

</svg>